HIERARCHY
ROOT Hips
{
	OFFSET -3.958830 18.904000 13.208200
	CHANNELS 6 Xposition Yposition Zposition Zrotation Yrotation Xrotation 
	JOINT LHipJoint
	{
		OFFSET 0.000000 0.000000 0.000000
		CHANNELS 3 Zrotation Yrotation Xrotation
		JOINT LeftUpLeg
		{
			OFFSET 1.800000 -1.400000 0.085000
			CHANNELS 3 Zrotation Yrotation Xrotation
			JOINT LeftLeg
			{
				OFFSET 2.215000 -6.000000 0.000000
				CHANNELS 3 Zrotation Yrotation Xrotation
				JOINT LeftFoot
				{
					OFFSET 2.500000 -6.900000 0.000000
					CHANNELS 3 Zrotation Yrotation Xrotation
					JOINT LeftToeBase
					{
						OFFSET 0.200000 -0.500000 1.950000
						CHANNELS 3 Zrotation Yrotation Xrotation
						End Site
						{
							OFFSET 0.000000 0.000000 0.000000
						}
					}
				}
			}
		}
	}
	JOINT RHipJoint
	{
		OFFSET 0.000000 0.000000 0.000000
		CHANNELS 3 Zrotation Yrotation Xrotation
		JOINT RightUpLeg
		{
			OFFSET -1.800000 -1.400000 0.085000
			CHANNELS 3 Zrotation Yrotation Xrotation
			JOINT RightLeg
			{
				OFFSET -2.215000 -6.000000 0.000000
				CHANNELS 3 Zrotation Yrotation Xrotation
				JOINT RightFoot
				{
					OFFSET -2.500000 -6.900000 0.000000
					CHANNELS 3 Zrotation Yrotation Xrotation
					JOINT RightToeBase
					{
						OFFSET -0.200000 -0.500000 1.950000
						CHANNELS 3 Zrotation Yrotation Xrotation
						End Site
						{
							OFFSET 0.000000 0.000000 0.000000
						}
					}
				}
			}
		}
	}
	JOINT LowerBack
	{
		OFFSET 0.000000 0.000000 0.000000
		CHANNELS 3 Zrotation Yrotation Xrotation
		JOINT Spine
		{
			OFFSET -0.087000 1.940000 -0.288900
			CHANNELS 3 Zrotation Yrotation Xrotation
			JOINT Spine1
			{
				OFFSET 0.000000 1.950000 0.060000
				CHANNELS 3 Zrotation Yrotation Xrotation
				JOINT Neck
				{
					OFFSET 0.000000 0.000000 0.000000
					CHANNELS 3 Zrotation Yrotation Xrotation
					JOINT Neck1
					{
						OFFSET 0.000000 1.600000 0.340000
						CHANNELS 3 Zrotation Yrotation Xrotation
						JOINT Head
						{
							OFFSET 0.000000 1.667000 -0.240000
							CHANNELS 3 Zrotation Yrotation Xrotation
							End Site
							{
								OFFSET 0.000000 0.000000 0.000000
							}
						}
					}
				}
				JOINT LeftShoulder
				{
					OFFSET 0.000000 0.000000 0.000000
					CHANNELS 3 Zrotation Yrotation Xrotation
					JOINT LeftArm
					{
						OFFSET 2.700000 1.550000 -0.730000
						CHANNELS 3 Zrotation Yrotation Xrotation
						JOINT LeftForeArm
						{
							OFFSET 5.450000 0.000000 0.000000
							CHANNELS 3 Zrotation Yrotation Xrotation
							JOINT LeftHand
							{
								OFFSET 3.450000 0.000000 0.000000
								CHANNELS 3 Zrotation Yrotation Xrotation
								JOINT LeftHandIndex1
								{
									OFFSET 0.750000 0.000000 0.000000
									CHANNELS 3 Zrotation Yrotation Xrotation
									End Site
									{
										OFFSET 0.000000 0.000000 0.000000
									}
								}
							}
						}
					}
				}
				JOINT RightShoulder
				{
					OFFSET 0.000000 0.000000 0.000000
					CHANNELS 3 Zrotation Yrotation Xrotation
					JOINT RightArm
					{
						OFFSET -2.700000 1.550000 -0.730000
						CHANNELS 3 Zrotation Yrotation Xrotation
						JOINT RightForeArm
						{
							OFFSET -5.450000 0.000000 0.000000
							CHANNELS 3 Zrotation Yrotation Xrotation
							JOINT RightHand
							{
								OFFSET -3.450000 0.000000 0.000000
								CHANNELS 3 Zrotation Yrotation Xrotation
								JOINT RightHandIndex1
								{
									OFFSET -0.750000 0.000000 0.000000
									CHANNELS 3 Zrotation Yrotation Xrotation
									End Site
									{
										OFFSET 0.000000 0.000000 0.000000
									}
								}
							}
						}
					}
				}
			}
		}
	}
}
MOTION
Frames: 9
Frame Time: 0.016667
0.200710 16.796330 -1.506830 -14.313923 25.483212 -23.018427 -15.081387 12.515416 3.799922 32.704878 -1.225661 -15.807454 -10.620815 13.978491 36.490743 0.329128 9.181981 1.402820 0.183080 -0.352070 0.061860 18.247285 -11.780891 2.213749 -11.344778 -2.786305 11.197635 4.088083 -9.579890 27.709843 -0.980199 -6.430519 2.582091 -0.242550 0.402930 -0.065380 -4.488248 0.577380 -8.364015 -4.969770 -0.261499 33.486854 -23.408054 3.575751 -4.733314 12.571319 -12.398798 -23.632700 -38.422811 13.239939 41.251696 15.000020 -8.186270 -3.471360 -7.903850 -13.416240 8.828098 -35.415369 5.914471 -10.031135 -61.306209 -57.806695 25.825287 -3.087059 3.188058 0.873920 -0.128960 -0.097280 0.261100 -12.460593 31.019286 14.763513 -24.923913 -23.112587 -13.501167 -81.713395 -39.694266 25.073467 4.391669 -1.212254 -0.402830 0.468270 0.077180 -0.168110 
0.186930 16.814530 -1.517190 -14.119688 26.424236 -22.827951 -15.022698 12.421912 3.678617 31.894070 -1.177976 -16.152088 -10.178127 13.620210 36.298355 0.317417 8.983143 1.470285 0.203580 -0.320530 0.092710 18.302706 -11.934535 2.230107 -11.660826 -2.614716 11.007984 4.067112 -9.453917 27.295439 -0.980261 -6.411321 2.572949 -0.229850 0.377300 -0.059760 -4.737471 1.044010 -8.327275 -5.488211 -0.904531 34.000915 -25.165140 3.175739 -3.075118 12.848415 -12.558044 -23.655735 -38.168716 12.883529 39.537982 14.214010 -7.586570 -4.008140 -6.627831 -12.967280 8.458394 -35.027969 5.293909 -10.717847 -61.624646 -59.032628 26.403457 -3.031308 3.251455 0.849670 -0.136170 -0.085000 0.256920 -14.433282 30.176017 15.497507 -22.804492 -22.893183 -14.120903 -76.926538 -42.397147 22.973751 4.876108 -1.171047 -0.380160 0.448270 0.051710 -0.164530 
0.188800 16.855460 -1.531770 -15.114987 28.551708 -21.056349 -14.918083 12.111917 3.613572 31.002087 -0.828760 -18.928757 -9.297190 12.899105 35.358110 0.206288 8.479527 1.576745 0.329090 -0.211700 0.252600 18.450997 -12.092890 2.266590 -10.865300 -2.191759 9.077591 5.045611 -9.380150 26.450480 -1.010802 -6.211445 2.605649 -0.197770 0.207390 -0.047560 -5.290281 1.902506 -8.380570 -3.206011 -2.254546 33.008430 -29.764872 2.362652 -1.272250 13.374973 -11.972547 -24.299229 -39.412767 13.986887 41.023783 12.042640 -6.308040 -5.600170 -5.384279 -11.990919 7.783567 -33.358600 4.432848 -10.743976 -63.290375 -60.753576 28.537698 -2.850541 3.357864 0.903650 -0.223700 0.010540 0.238330 -17.176572 27.749420 17.116517 -19.371403 -21.436867 -13.545172 -65.027372 -45.366728 18.597628 5.972732 -0.895639 -0.315240 0.374240 -0.039640 -0.218520 
0.169080 16.891800 -1.533290 -15.072333 30.601824 -18.147485 -14.879739 11.949501 3.587258 29.210964 -0.144890 -22.231003 -8.523388 12.331543 34.184937 0.128511 8.005691 1.696821 0.396620 -0.135240 0.294040 18.524115 -12.128759 2.265558 -10.503115 -1.098669 6.322633 6.189215 -9.221305 26.024820 -0.975062 -6.044391 2.618299 -0.174630 0.151580 0.017680 -5.584915 2.325493 -8.375191 -3.341736 -2.596670 31.179819 -32.766400 2.208532 0.796485 13.431805 -11.755336 -24.428218 -39.266745 14.932296 40.124664 10.872650 -4.952310 -5.507200 -4.402446 -10.666592 7.263582 -32.330035 4.421642 -11.096502 -68.027355 -63.564958 32.844967 -2.774815 3.550835 0.875310 -0.225520 0.045980 0.242230 -18.690517 25.289669 17.962645 -18.891792 -18.582139 -12.590534 -50.787313 -44.410164 13.263693 7.223812 -0.496502 -0.238570 0.285130 -0.076050 -0.214000 
0.150820 16.922870 -1.540610 -15.326041 32.901091 -14.507547 -14.877924 11.768722 3.735148 27.321835 0.549290 -27.086336 -7.602679 11.913369 33.428331 0.083506 7.602991 1.783213 0.481980 -0.036170 0.348140 18.578862 -12.006809 2.241594 -9.632596 0.341319 2.575354 7.491041 -9.036238 26.401003 -0.924034 -5.838155 2.611825 -0.137150 0.080860 0.080630 -5.746343 2.462812 -8.430202 -3.152534 -2.761199 28.990027 -35.327492 2.237607 2.078375 13.127565 -11.223993 -24.354380 -38.606266 16.898099 40.625267 10.394790 -3.287090 -4.044880 -4.415215 -9.652833 7.045529 -31.594451 5.163237 -11.264435 -74.244378 -65.590689 37.817609 -2.725340 3.752561 0.826000 -0.236870 0.084240 0.249960 -18.726228 23.379013 17.390305 -20.438671 -15.842552 -11.415682 -40.440862 -37.694424 8.245572 7.380890 -0.477474 -0.147930 0.172940 -0.129510 -0.204170 
0.103870 16.964680 -1.579340 -16.548818 33.732249 -13.300557 -14.855003 11.555183 3.752867 26.844973 2.260497 -29.756555 -6.527522 11.623722 32.131980 0.047157 7.267613 1.865162 0.632560 0.148460 0.424110 18.672437 -11.900452 2.273854 -7.985016 1.813971 0.230378 8.215293 -8.623371 27.118830 -0.904927 -5.758479 2.634635 -0.027440 -0.007280 0.066420 -5.918266 2.931361 -8.544835 -2.418371 -2.769971 29.441946 -36.660685 2.958188 3.657176 12.731408 -11.234930 -23.605991 -38.145053 18.054078 40.768719 9.034270 -2.177610 -3.213370 -5.603610 -9.342414 6.586038 -30.012587 4.647220 -11.527622 -81.423212 -67.369461 43.292816 -2.645036 3.891880 0.772350 -0.253840 0.092610 0.302320 -17.507067 22.857206 15.950440 -24.187166 -14.539174 -10.790585 -33.304641 -28.909027 4.265262 6.575259 -0.647345 -0.092050 0.099010 -0.249620 -0.205380 
0.049970 16.973600 -1.595760 -16.788264 34.565385 -11.350450 -14.902941 11.432529 3.883430 25.873217 3.933873 -32.721697 -6.186085 11.764387 31.101266 0.009881 7.139768 1.867485 0.730160 0.237170 0.555440 18.665370 -11.713110 2.314865 -7.441332 3.492158 -2.173893 9.576318 -8.433420 27.715207 -0.889442 -5.670303 2.615288 0.025440 -0.118640 0.079200 -5.751967 2.963141 -8.666639 -3.782250 -1.617268 29.092276 -36.610604 4.798907 4.426921 12.365083 -10.753347 -22.324815 -35.686888 17.449109 44.336133 6.131310 -1.388250 -3.773400 -7.408546 -8.943760 5.439089 -27.282639 3.160766 -11.229668 -87.151093 -65.529229 46.018738 -2.672038 3.882902 0.772140 -0.281920 0.133930 0.283990 -15.784466 22.983526 13.853798 -27.649966 -12.124679 -9.874984 -27.973458 -19.695250 1.769778 5.389779 -0.772362 -0.054110 0.038460 -0.318990 -0.249020 
0.009100 16.979310 -1.610820 -16.670469 35.493410 -9.947513 -14.937784 11.414400 3.833256 24.337681 5.255561 -34.645020 -5.494419 11.611184 30.041876 -0.124556 7.015544 1.918663 0.745690 0.218400 0.615520 18.651766 -11.582765 2.386369 -7.575278 5.047243 -3.794539 11.202051 -8.415151 28.141739 -0.855203 -5.687918 2.593410 0.068530 -0.104790 0.044980 -5.635559 2.973368 -8.671342 -5.079623 -0.746711 29.544824 -36.430437 6.257762 5.419211 11.910447 -11.113673 -20.864633 -34.946898 16.589178 44.886757 4.920450 -1.994400 -5.620390 -7.688074 -8.411402 4.400998 -26.249286 1.165850 -11.388561 -89.599716 -63.782004 46.274187 -2.767252 3.768611 0.804890 -0.274550 0.099300 0.259830 -15.078988 23.249922 11.453340 -30.041512 -8.393980 -9.330724 -24.296146 -13.142430 0.446733 4.497478 -0.822976 -0.126460 0.109310 -0.303230 -0.297900 
-0.030300 16.968960 -1.649350 -16.837237 36.897379 -9.789789 -14.958838 11.385672 3.717986 22.698471 6.261136 -36.472027 -4.162477 11.287797 30.109789 -0.148561 6.832395 1.945223 0.828660 0.319330 0.668100 18.637203 -11.498304 2.521532 -8.121567 6.653049 -4.479890 13.887740 -8.844386 28.555913 -0.949883 -5.909907 2.481715 0.109560 -0.168400 0.091310 -5.621003 3.179018 -8.700277 -6.171580 -0.335117 32.103890 -35.866197 7.205364 6.205545 11.779620 -10.745507 -20.387698 -33.690018 16.088048 46.791790 4.691800 -2.210750 -8.151680 -8.019028 -9.025904 3.750850 -25.144672 -1.026138 -11.774809 -94.314844 -62.671573 48.448105 -2.771203 3.774038 0.828800 -0.306080 0.168800 0.272280 -14.733483 24.235269 10.517027 -30.893258 -6.685576 -9.061085 -22.385242 -7.794542 -0.271340 3.998077 -1.007995 -0.070940 0.078450 -0.341990 -0.295860 
